<svg xmlns="http://www.w3.org/2000/svg" width="88" height="88" viewBox="0 0 88 88">
  <g id="Group_19" data-name="Group 19" transform="translate(-68.137)">
    <path id="Path_14" data-name="Path 14" d="M44,0A44,44,0,1,1,0,44,44,44,0,0,1,44,0Z" transform="translate(68.137)" fill="#bdcdda"/>
    <path id="Path_1" data-name="Path 1" d="M31.85,18H16v8a4,4,0,0,0,8,0h2a6,6,0,0,1-12,0V18H0V16a16,16,0,0,1,32,0v2ZM16,2A13.977,13.977,0,0,0,2,16H30A13.977,13.977,0,0,0,16,2Z" transform="translate(96.141 28)" fill="#fff" fill-rule="evenodd"/>
  </g>
</svg>
